<svg width="26" height="26" viewBox="0 0 26 26" fill="none" xmlns="http://www.w3.org/2000/svg">
<path d="M18.6709 2.81201H8.20086C5.30963 2.81201 2.96582 5.15582 2.96582 8.04705V18.5171C2.96582 21.4084 5.30963 23.7522 8.20086 23.7522H18.6709C21.5622 23.7522 23.906 21.4084 23.906 18.5171V8.04705C23.906 5.15582 21.5622 2.81201 18.6709 2.81201Z" stroke="white" stroke-width="2.09402" stroke-linecap="round" stroke-linejoin="round"/>
<path d="M17.6237 12.6221C17.753 13.4934 17.6041 14.3834 17.1984 15.1653C16.7927 15.9472 16.1508 16.5812 15.3639 16.9773C14.5771 17.3733 13.6854 17.5112 12.8157 17.3712C11.9459 17.2313 11.1425 16.8207 10.5196 16.1978C9.89673 15.5749 9.48611 14.7714 9.34616 13.9017C9.20621 13.032 9.34407 12.1403 9.74011 11.3535C10.1362 10.5666 10.7702 9.9247 11.5521 9.51898C12.334 9.11327 13.224 8.96443 14.0953 9.09364C14.9842 9.22545 15.807 9.63962 16.4424 10.275C17.0778 10.9104 17.4919 11.7332 17.6237 12.6221Z" stroke="white" stroke-width="2.09402" stroke-linecap="round" stroke-linejoin="round"/>
<path d="M19.1943 7.52344H19.2048" stroke="white" stroke-width="2.09402" stroke-linecap="round" stroke-linejoin="round"/>
</svg>
