<svg width="25" height="26" viewBox="0 0 25 26" fill="none" xmlns="http://www.w3.org/2000/svg">
<path d="M6.41514 3.17173C6.42 3.79241 6.18038 4.39007 5.74807 4.83548C5.31577 5.28088 4.72552 5.53824 4.10497 5.5519C3.48572 5.5294 2.89878 5.26983 2.46548 4.82685C2.03218 4.38386 1.78565 3.79133 1.77686 3.17173C1.80362 2.5679 2.0591 1.99686 2.49146 1.5745C2.92383 1.15214 3.50068 0.910087 4.10497 0.897461C4.70748 0.910328 5.28229 1.15299 5.71174 1.57577C6.1412 1.99856 6.39283 2.56949 6.41514 3.17173ZM2.02636 9.78092C2.02636 8.41313 2.89694 8.62673 4.10497 8.62673C5.31301 8.62673 6.16563 8.41313 6.16563 9.78092V23.107C6.16563 24.4927 5.29506 24.2091 4.10497 24.2091C2.91489 24.2091 2.02636 24.4927 2.02636 23.107V9.78092ZM9.75563 9.78271C9.75563 9.01804 10.0392 8.73264 10.4826 8.64468C10.9278 8.55493 12.4553 8.64468 12.9884 8.64468C13.5215 8.64468 13.7351 9.51526 13.7172 10.1722C14.1731 9.56038 14.7784 9.07572 15.4751 8.76459C16.1719 8.45346 16.9368 8.32627 17.6967 8.39518C18.443 8.34961 19.1905 8.46152 19.8907 8.72365C20.5909 8.98577 21.2281 9.39225 21.761 9.91667C22.2939 10.4411 22.7105 11.0717 22.9838 11.7677C23.2571 12.4636 23.381 13.2092 23.3474 13.9561V23.0531C23.3474 24.4389 22.4947 24.1553 21.2849 24.1553C20.0769 24.1553 19.2243 24.4389 19.2243 23.0531V15.9467C19.2555 15.581 19.2078 15.2129 19.0842 14.8673C18.9606 14.5217 18.7641 14.2068 18.508 13.9439C18.2519 13.681 17.9422 13.4762 17.6 13.3436C17.2577 13.211 16.891 13.1536 16.5246 13.1753C16.1596 13.1656 15.7968 13.2337 15.4601 13.375C15.1234 13.5162 14.8207 13.7275 14.5718 13.9946C14.323 14.2618 14.1338 14.5788 14.0168 14.9246C13.8998 15.2705 13.8576 15.6372 13.8931 16.0006V23.107C13.8931 24.4927 13.0225 24.2091 11.8145 24.2091C10.6065 24.2091 9.75384 24.4927 9.75384 23.107V9.78092L9.75563 9.78271Z" stroke="white" stroke-width="1.795" stroke-linecap="round" stroke-linejoin="round"/>
</svg>
